<svg width="19" height="18" viewBox="0 0 19 18" fill="none" xmlns="http://www.w3.org/2000/svg">
<path d="M13.4334 11H12.5844L12.2835 10.73C13.3366 9.58999 13.9707 8.11 13.9707 6.5C13.9707 2.91 10.8434 0 6.98534 0C3.12728 0 0 2.91 0 6.5C0 10.09 3.12728 13 6.98534 13C8.71556 13 10.3061 12.41 11.5312 11.43L11.8213 11.71V12.5L17.1947 17.49L18.7959 16L13.4334 11ZM6.98534 11C4.30942 11 2.14934 8.99 2.14934 6.5C2.14934 4.01 4.30942 2 6.98534 2C9.66127 2 11.8213 4.01 11.8213 6.5C11.8213 8.99 9.66127 11 6.98534 11Z" fill="#BDBDBD"/>
</svg>
