<svg width="18" height="20" viewBox="0 0 18 20" fill="none" xmlns="http://www.w3.org/2000/svg">
<path fill-rule="evenodd" clip-rule="evenodd" d="M8.48839 1.00885C8.78931 0.7748 9.2107 0.7748 9.51162 1.00885L17.0116 6.84219C17.2146 7.00007 17.3333 7.24282 17.3333 7.49998V16.6666C17.3333 17.3297 17.0699 17.9656 16.6011 18.4344C16.1323 18.9033 15.4964 19.1666 14.8333 19.1666H3.16667C2.50363 19.1666 1.86775 18.9033 1.3989 18.4344C0.930064 17.9656 0.666672 17.3297 0.666672 16.6666V7.49998C0.666672 7.24282 0.785399 7.00007 0.988388 6.84219L8.48839 1.00885ZM2.33334 7.90755V16.6666C2.33334 16.8877 2.42114 17.0996 2.57742 17.2559C2.7337 17.4122 2.94566 17.5 3.16667 17.5H14.8333C15.0544 17.5 15.2663 17.4122 15.4226 17.2559C15.5789 17.0996 15.6667 16.8877 15.6667 16.6666V7.90755L9.00001 2.72236L2.33334 7.90755Z" fill="#BDBDBD"/>
<path fill-rule="evenodd" clip-rule="evenodd" d="M5.66667 9.99998C5.66667 9.53974 6.03977 9.16665 6.50001 9.16665H11.5C11.9602 9.16665 12.3333 9.53974 12.3333 9.99998V18.3333C12.3333 18.7935 11.9602 19.1666 11.5 19.1666C11.0398 19.1666 10.6667 18.7935 10.6667 18.3333V10.8333H7.33334V18.3333C7.33334 18.7935 6.96024 19.1666 6.50001 19.1666C6.03977 19.1666 5.66667 18.7935 5.66667 18.3333V9.99998Z" fill="#BDBDBD"/>
</svg>
